<?xml version="1.0" standalone="no"?><!DOCTYPE svg PUBLIC "-//W3C//DTD SVG 1.1//EN" "http://www.w3.org/Graphics/SVG/1.1/DTD/svg11.dtd"><svg t="1559155467093" class="icon" style="" viewBox="0 0 1024 1024" version="1.1" xmlns="http://www.w3.org/2000/svg" p-id="7897" xmlns:xlink="http://www.w3.org/1999/xlink" width="200" height="200"><defs><style type="text/css"></style></defs><path d="M884.736 509.44c10.8544 9.1648 12.1344 25.3952 2.9696 36.3008l-159.9488 187.648a25.8048 25.8048 0 0 1-6.8608 9.8816c-1.9456 1.536-4.5568 1.4848-6.7584 2.4576l-0.5632 0.2048c-3.1744 1.1776-6.0416 3.328-9.2672 3.328a25.4976 25.4976 0 0 1-16.9472-7.0656c-0.256-0.1536-0.512-0.1024-0.768-0.256-0.2048-0.2048-0.3072-0.512-0.512-0.6144-0.4608-0.512-1.024-0.7168-1.536-1.2288l-102.4-121.7024a25.8048 25.8048 0 0 1 39.3728-33.1776l81.92 97.28 144.9984-170.1888a25.7024 25.7024 0 0 1 36.352-2.9184M342.272 723.5584a25.8048 25.8048 0 0 1-25.8048 25.7536H156.5696a25.8048 25.8048 0 1 1 0-51.5072H316.416c14.1824 0 25.8048 11.5712 25.8048 25.7536m194.2016-194.4576a25.8048 25.8048 0 0 1-25.7536 25.7024H156.5696a25.8048 25.8048 0 1 1 0-51.456h354.1504c14.1824 0 25.7536 11.52 25.7536 25.7536m288.768 443.392H197.4272a145.9712 145.9712 0 0 1-145.8176-145.92V335.9744h919.552v490.5984a146.0224 146.0224 0 0 1-145.8176 145.92M197.376 51.456h627.9168a146.0224 146.0224 0 0 1 145.8688 145.8688v87.04H51.5584v-87.04a145.9712 145.9712 0 0 1 145.8176-145.92M1024 310.272c0-2.3552-0.768-4.5056-1.3824-6.656V197.376A197.632 197.632 0 0 0 825.344 0H197.376A197.632 197.632 0 0 0 0 197.376v629.248a197.632 197.632 0 0 0 197.376 197.3248h627.9168a197.632 197.632 0 0 0 197.3248-197.376V316.7744c0.6144-2.0992 1.3824-4.1984 1.3824-6.5536" p-id="7898"></path></svg>